:SAMPLES-PER-SECOND 25
:FULLY-SPECIFIED
:DEGREES
270
root  12.291 48.1847 -41.9702 171.946 1.44482 -178.559
RightUpLeg  -20.6304 -5.88322 -1.30503
RightLeg  77.8959 -0.730341 -5.42676
RightFoot  -25.4443 0.177268 2.827
RightToes  2.84633e-005 7.89722e-005 -0.000426369
Spine  2.98535 -1.01951 -0.437114
Spine1  5.6834 -3.36303 3.78715
HEad  32.8474 4.83057 -11.2397
LeftShoulder1  -3.88251e-019 0 -3.92111e-022
LeftArm  -34.5376 -1.86229 -85.4253
LeftForeArm  28.2442 2.02423 2.07288
LeftHand  -0.524955 -4.56073 6.41518
RightShoulder  7.45443e-017 -2.42657e-020 1.96277e-018
RightArm  -32.2441 -23.854 72.2051
RightForeArm  20.9901 4.62461 3.08069
RightHand  -0.836854 8.0321 -7.58673
LeftUpLeg  -1.94327 2.41266 -4.98125
LeftLeg  30.0994 5.09347 3.54829
LeftFoot  -25.8359 0.595987 3.46005
LeftToes  3.91355e-005 3.11907e-005 -4.10385e-006
271
root  12.5817 48.3613 -43.2445 172.519 -0.0622559 -178.154
RightUpLeg  -21.9805 -6.01758 -0.5159
RightLeg  64.8354 -2.29424 -5.94274
RightFoot  -22.064 0.0628813 2.2626
RightToes  2.84633e-005 7.89722e-005 -0.000426369
Spine  2.7278 -1.81865 -0.00876779
Spine1  5.32724 -4.42489 3.7643
HEad  33.5649 4.92529 -10.6715
LeftShoulder1  -3.88251e-019 0 -3.92111e-022
LeftArm  -33.8304 -2.61452 -85.7372
LeftForeArm  27.8293 2.07997 1.2652
LeftHand  -0.450424 -5.12424 5.27816
RightShoulder  7.45443e-017 -2.42657e-020 1.96277e-018
RightArm  -32.0797 -24.0874 72.5238
RightForeArm  20.2719 6.41386 3.75625
RightHand  -1.02039 8.65551 -8.78122
LeftUpLeg  0.638433 2.00627 -3.86043
LeftLeg  28.1016 3.75813 2.53227
LeftFoot  -26.7423 0.545187 2.84103
LeftToes  3.91355e-005 3.11907e-005 -4.10385e-006
272
root  12.8832 48.2719 -44.5134 173.4 -1.42613 -178.449
RightUpLeg  -22.4864 -6.02785 -0.767134
RightLeg  50.9682 -2.20358 -3.31038
RightFoot  -16.7375 -0.0181426 1.94312
RightToes  2.84633e-005 7.89722e-005 -0.000426369
Spine  2.36378 -2.24214 0.150938
Spine1  4.71138 -4.80598 2.85951
HEad  33.9968 4.05657 -9.47863
LeftShoulder1  -3.88251e-019 0 -3.92111e-022
LeftArm  -33.0344 -3.7971 -85.2246
LeftForeArm  27.373 2.10297 1.06352
LeftHand  -0.443846 -5.09016 5.2219
RightShoulder  7.45443e-017 -2.42657e-020 1.96277e-018
RightArm  -32.2379 -24.8287 73.1142
RightForeArm  18.1267 8.07307 4.24742
RightHand  -1.12735 8.90661 -9.49951
LeftUpLeg  2.08742 3.22691 -2.89287
LeftLeg  27.659 0.953999 0.890976
LeftFoot  -28.7705 0.538673 2.38256
LeftToes  3.91355e-005 3.11907e-005 -4.10385e-006
273
root  13.1775 47.899 -45.7884 174.137 -2.50359 -179.077
RightUpLeg  -21.7994 -5.44837 -1.58123
RightLeg  36.7865 0.433319 0.0459668
RightFoot  -6.67909 -0.170202 2.82836
RightToes  2.84633e-005 7.89722e-005 -0.000426369
Spine  2.10874 -2.34602 0.340367
Spine1  4.21872 -4.67616 1.54181
HEad  34.03 3.04016 -8.62931
LeftShoulder1  -3.88251e-019 0 -3.92111e-022
LeftArm  -32.4987 -5.17044 -84.3964
LeftForeArm  27.0805 2.09917 1.16135
LeftHand  -0.537633 -4.73685 6.45484
RightShoulder  7.45443e-017 -2.42657e-020 1.96277e-018
RightArm  -32.1656 -25.2522 73.2634
RightForeArm  17.4625 8.78037 4.73544
RightHand  -1.05429 8.67433 -9.04664
LeftUpLeg  2.68691 4.94321 -2.05799
LeftLeg  29.6083 -1.9245 -0.837759
LeftFoot  -31.4487 0.596293 2.2914
LeftToes  3.91355e-005 3.11907e-005 -4.10385e-006
274
root  13.4827 47.2053 -47.1338 174.334 -3.43977 -179.63
RightUpLeg  -19.5425 -3.19016 -2.81422
RightLeg  23.1289 4.50741 1.98761
RightFoot  6.43211 -1.09304 7.01209
RightToes  2.84633e-005 7.89722e-005 -0.000426369
Spine  2.18297 -2.30296 0.847391
Spine1  4.24786 -4.30336 0.449451
HEad  33.844 2.32022 -8.68394
LeftShoulder1  -3.88251e-019 0 -3.92111e-022
LeftArm  -32.287 -6.38125 -83.7579
LeftForeArm  25.9591 2.21119 1.09881
LeftHand  -0.648659 -4.53684 7.86785
RightShoulder  7.45443e-017 -2.42657e-020 1.96277e-018
RightArm  -31.4888 -25.0011 72.5281
RightForeArm  18.4434 8.80464 5.21303
RightHand  -1.04586 8.56548 -9.04534
LeftUpLeg  3.05127 5.73548 -1.32924
LeftLeg  33.9878 -3.56315 -2.22321
LeftFoot  -35.3726 0.75226 2.52711
LeftToes  3.91355e-005 3.11907e-005 -4.10385e-006
275
root  13.815 46.2463 -48.6296 174.238 -4.44064 179.647
RightUpLeg  -16.7973 -2.19683 -3.65577
RightLeg  12.2771 9.47144 1.07097
RightFoot  15.0052 -2.48413 11.0127
RightToes  2.84633e-005 7.89722e-005 -0.000426369
Spine  2.34589 -2.11463 1.17376
Spine1  4.3918 -3.63026 -0.518015
HEad  33.9361 1.53431 -8.94429
LeftShoulder1  -3.88251e-019 0 -3.92111e-022
LeftArm  -31.8775 -6.91049 -83.2793
LeftForeArm  24.1857 2.00421 0.516793
LeftHand  -0.680134 -4.49466 8.26846
RightShoulder  7.45443e-017 -2.42657e-020 1.96277e-018
RightArm  -30.6739 -25.1063 71.4308
RightForeArm  19.7443 8.8577 5.79032
RightHand  -1.17327 8.93602 -9.84673
LeftUpLeg  3.46981 5.84029 -0.782983
LeftLeg  39.7162 -4.30772 -3.44801
LeftFoot  -39.8532 0.988764 2.93612
LeftToes  3.91355e-005 3.11907e-005 -4.10385e-006
276
root  14.2048 45.0615 -50.2972 174.523 -5.34875 178.559
RightUpLeg  -16.0309 -2.79255 -4.3282
RightLeg  7.27845 10.1754 -0.734821
RightFoot  17.684 -3.04384 12.1984
RightToes  2.84633e-005 7.89722e-005 -0.000426369
Spine  2.22018 -1.74583 0.997094
Spine1  3.97639 -2.65882 -1.72947
HEad  34.4458 0.741246 -8.82462
LeftShoulder1  -3.88251e-019 0 -3.92111e-022
LeftArm  -31.4163 -6.59517 -82.4947
LeftForeArm  23.3351 -1.33565 -0.771607
LeftHand  -0.684209 -4.61172 8.22547
RightShoulder  7.45443e-017 -2.42657e-020 1.96277e-018
RightArm  -30.3207 -25.8514 70.6024
RightForeArm  21.1328 8.82178 6.36264
RightHand  -1.22298 9.24508 -10.0442
LeftUpLeg  3.5973 5.70187 -0.392126
LeftLeg  46.3445 -4.83235 -4.9941
LeftFoot  -43.764 1.27317 3.45718
LeftToes  3.91355e-005 3.11907e-005 -4.10385e-006
277
root  14.6677 43.6112 -52.1714 175.202 -5.68439 177.236
RightUpLeg  -16.5254 -3.42452 -5.19949
RightLeg  6.94304 4.97214 -1.34241
RightFoot  21.3568 -3.97811 14.0056
RightToes  2.84633e-005 7.89722e-005 -0.000426369
Spine  1.87654 -1.27767 0.468955
Spine1  3.12395 -1.44522 -3.19658
HEad  35.1496 0.53042 -8.6233
LeftShoulder1  -3.88251e-019 0 -3.92111e-022
LeftArm  -31.5354 -5.24013 -81.2468
LeftForeArm  23.7415 -5.72335 -2.25344
LeftHand  -0.714486 -4.82182 8.41113
RightShoulder  7.45443e-017 -2.42657e-020 1.96277e-018
RightArm  -30.4106 -26.5296 70.1204
RightForeArm  22.537 8.56391 6.45432
RightHand  -1.12421 9.03578 -9.39299
LeftUpLeg  3.92969 5.30936 -0.144222
LeftLeg  53.5361 -4.9658 -6.70808
LeftFoot  -47.2117 1.44136 3.55845
LeftToes  3.91355e-005 3.11907e-005 -4.10385e-006
278
root  15.193 41.9803 -54.2346 175.794 -5.32898 175.769
RightUpLeg  -14.989 -4.31698 -5.92153
RightLeg  7.273 0.1334 -0.687576
RightFoot  24.2514 -4.3625 14.207
RightToes  2.84633e-005 7.89722e-005 -0.000426369
Spine  1.53433 -0.832131 -0.152082
Spine1  2.24463 -0.156172 -4.73102
HEad  35.3689 1.02868 -8.38069
LeftShoulder1  -3.88251e-019 0 -3.92111e-022
LeftArm  -31.5354 -1.83933 -79.6323
LeftForeArm  23.1663 -11.3019 -3.71187
LeftHand  -0.704152 -4.64864 8.42598
RightShoulder  7.45443e-017 -2.42657e-020 1.96277e-018
RightArm  -30.4501 -27.2652 69.9225
RightForeArm  23.0983 8.62413 6.15728
RightHand  -1.0285 8.61395 -8.87324
LeftUpLeg  5.04034 5.38652 0.383267
LeftLeg  60.944 -4.74088 -8.61536
LeftFoot  -49.6891 1.33161 2.95371
LeftToes  3.91355e-005 3.11907e-005 -4.10385e-006
279
root  15.7267 40.4794 -56.1893 176.231 -4.73006 175.484
RightUpLeg  -12.6824 -4.35147 -5.01626
RightLeg  9.82072 -0.61058 0.590005
RightFoot  15.7956 -1.69089 7.2103
RightToes  2.84633e-005 7.89722e-005 -0.000426369
Spine  1.37636 -0.561395 -0.294725
Spine1  1.76243 0.875599 -5.06989
HEad  34.126 1.89612 -7.92034
LeftShoulder1  -3.88251e-019 0 -3.92111e-022
LeftArm  -29.4268 3.19517 -77.7452
LeftForeArm  19.4741 -17.6082 -4.23362
LeftHand  -0.658953 -4.20246 8.2494
RightShoulder  7.45443e-017 -2.42657e-020 1.96277e-018
RightArm  -30.6024 -28.0984 70.1221
RightForeArm  22.3772 8.80015 6.06824
RightHand  -1.02468 8.584 -8.85833
LeftUpLeg  5.29769 5.46744 2.59397
LeftLeg  69.8697 -4.00229 -11.2982
LeftFoot  -47.9949 0.895526 1.82273
LeftToes  3.91355e-005 3.11907e-005 -4.10385e-006
280
root  16.1768 38.9758 -57.91 176.247 -4.04132 177.25
RightUpLeg  -15.1837 -6.43878 -1.12937
RightLeg  21.8516 1.73881 0.809822
RightFoot  -2.31913 0.0772191 -2.11047
RightToes  2.84633e-005 7.89722e-005 -0.000426369
Spine  1.58907 -0.329548 0.278802
Spine1  2.12072 1.722 -3.57021
HEad  31.7368 3.10921 -8.17453
LeftShoulder1  -3.88251e-019 0 -3.92111e-022
LeftArm  -30.7314 6.91867 -76.2672
LeftForeArm  19.1905 -19.3668 -4.0467
LeftHand  -0.719605 -4.23586 8.94931
RightShoulder  7.45443e-017 -2.42657e-020 1.96277e-018
RightArm  -31.1562 -27.4422 70.6618
RightForeArm  21.6366 7.87691 5.59601
RightHand  -1.04108 8.78464 -8.875
LeftUpLeg  3.39533 3.8124 5.98734
LeftLeg  82.1038 -1.58789 -12.9686
LeftFoot  -39.3754 0.275125 0.120939
LeftToes  3.91355e-005 3.11907e-005 -4.10385e-006
